<?xml version="1.0" encoding="UTF-8"?>
<!-- Generator: Adobe Illustrator 22.0.1, SVG Export Plug-In . SVG Version: 6.00 Build 0)  -->
<svg version="1.1" xmlns="http://www.w3.org/2000/svg" xmlns:xlink="http://www.w3.org/1999/xlink" x="0px" y="0px" viewBox="0 0 1376.4 465.2" style="enable-background:new 0 0 1376.4 465.2;" xml:space="preserve">
<style type="text/css">
	.st0{fill:#FFFFFF;}
	.st1{fill:#FFE000;stroke:#FFE000;stroke-miterlimit:10;}
</style>
<g id="Layer_1">
	<title>Untitled-2</title>
	<g id="logo-light">
		<g id="logo">
			<path class="st0" d="M51.1,461.2H0v-242h70.6L133.9,354c22.1-46.8,42.8-90.6,63.7-134.8h70.1c3,9.6,4.1,218.5,1.2,241.8H217     c-0.8-15.9-0.3-32.2-0.4-48.4c-0.1-16.5,0-33,0-49.4v-49.2l-2.7-0.9c-22.6,42.1-42.1,85.9-64.2,128.6h-31.8L54.1,312.5l-3,0.7     L51.1,461.2z"/>
			<path class="st0" d="M722.5,276.3h50.4c0.3,4.5,0.8,8.9,0.8,13.3c0.1,27.9-0.1,55.9,0.1,83.8c0,7.3,0.8,14.6,2.3,21.8     c4.7,22.2,24.1,32.2,45,23.2c17.2-7.4,24.4-21.5,24.7-39.4c0.4-24.3,0.1-48.5,0.2-72.8c0-9.5,0-19.1,0-29.6h50.4v184.6h-49.7     c-0.4-6.9-0.8-13.1-1.4-21.2c-3.8,3.3-6.5,5.4-8.9,7.8c-18.5,19.1-41.4,20.4-64.9,13.9c-24.9-6.8-40.9-23.7-46.2-49.4     c-1.8-9.4-2.7-19-2.6-28.6C722.3,348.5,722.5,313.3,722.5,276.3z"/>
			<path class="st0" d="M920,204.9h46.8c2.8,10,3.6,237.2,0.9,255.9H920V204.9z"/>
			<path class="st0" d="M991.9,276.3h49.2c0.7,6.7,1.4,13.3,2.2,21.4c16.5-12.7,32-24.8,53.8-24.6v47.3c-4.7,0.2-9.2,0.5-13.6,0.6     c-14.7,0.2-25.1,7.6-32.3,19.8c-6,10.3-9.2,22.1-9,34.1c0.1,23.8,0,47.6-0.1,71.4c0,4.5,0,9,0,15c-16.8,0.8-33.5,0.8-50.3,0     L991.9,276.3z"/>
			<path class="st0" d="M650.5,204.8c0,16.3,0.2,30.9-0.1,45.5c-0.3,14.2,1.3,28.5-1.3,43.9c-2.8-1.9-4.4-2.7-5.6-3.9     c-26.4-25-76.8-24.2-106,5.4c-21.5,21.8-28.8,47.8-27.7,77.5c1.1,32,14.8,56.9,39.4,76.5c25.6,20.4,67.4,21.2,91.9-3     c2.2-2.1,4.7-4,8.3-7c0.8,8.2,1.5,14.7,2.2,22c17,0.1,33.1,1,49-0.6V204.8H650.5z M644.5,397.1c-14.9,30.6-54.5,32.8-74,4.8     c-6.5-9.3-9.2-18.7-9.2-33.1c-0.9-14.5,4.2-28.7,14.1-39.4c18.5-20.3,47.9-19.2,64,3C654.2,352.7,655.3,375,644.5,397.1     L644.5,397.1z"/>
			<path class="st0" d="M464.7,305.2c-21.6-25-49.7-33.6-82.2-32.7c-51.9,1.4-100.9,49.4-90.3,113.5c7.6,46.3,51.5,82,97.7,78.4     c1.8,0,3.7,0,5.5,0c40.2-1.2,69.4-20.5,84.8-56.7S491.3,336,464.7,305.2z M424.7,405.8c-20.1,24-58.8,20.4-74.6-7.1     c-9.8-17-10.3-34.8-3.4-52.8c8.1-21.2,27.6-32.6,50.1-29.7c20.6,2.7,37.2,20.6,39.6,43.1c0.2,3.2,0.2,6.4,0,9.6     C437.2,382.6,433.5,395.2,424.7,405.8L424.7,405.8z"/>
		</g>
		<g>
			<polygon class="st1" points="1274,101.5 1274,0 1070,0 1070,204 1171.5,204 1171.5,101.5    "/>
			<polygon class="st1" points="1274,101.5 1274,204 1171.5,204 1171.5,305.5 1375.5,305.5 1375.5,101.5    "/>
		</g>
	</g>
</g>
<g id="Layer_2">
</g>
<script xmlns=""/></svg>