<svg xmlns="http://www.w3.org/2000/svg" viewBox="0 0 609.61 167"><defs><style>.cls-1{fill:#fff;}</style></defs><title>00_Lockup_White</title><g id="Layer_2" data-name="Layer 2"><g id="Layer_2-2" data-name="Layer 2"><polygon class="cls-1" points="0 93.89 0 102.06 17.39 102.06 17.39 151.31 26.93 151.31 26.93 102.06 44.4 102.06 44.4 93.89 0 93.89"/><path class="cls-1" d="M70.16,109.42q7,0,10.76,3.92a14,14,0,0,1,3.8,10.15v27.82h-8.9V126.24q0-4.45-2.18-6.83A8,8,0,0,0,67.41,117a8.74,8.74,0,0,0-6.55,2.67,9.36,9.36,0,0,0-2.59,6.79v24.83h-8.9V93.89h8.9v20.87q4-5.34,11.89-5.34"/><path class="cls-1" d="M111.29,116.94a10.42,10.42,0,0,0-8.49,3.84q-3.15,3.84-3.15,10.23t3.15,10.15a11.22,11.22,0,0,0,16.9,0q3.15-3.84,3.15-10.15t-3.15-10.23a10.34,10.34,0,0,0-8.41-3.84m0-7.52q9.14,0,14.88,6T131.91,131q0,9.54-5.74,15.53t-14.88,6q-9.14,0-14.92-6T90.59,131q0-9.62,5.74-15.61t15-6"/><path class="cls-1" d="M163.58,110.71h8.9v40.6h-8.17V146.7q-3.56,5.82-12.05,5.82-7.36,0-10.92-3.56a12.78,12.78,0,0,1-3.56-9.46V110.71h8.9v26.36a8.06,8.06,0,0,0,1.9,5.74,7.35,7.35,0,0,0,5.62,2,9.44,9.44,0,0,0,6.79-2.47q2.59-2.47,2.59-7.08Z"/><path class="cls-1" d="M198.43,143.06a9.58,9.58,0,0,0,7.76-3.64,14.42,14.42,0,0,0,3-9.46,14.13,14.13,0,0,0-3-9.34,9.63,9.63,0,0,0-7.76-3.6,9.5,9.5,0,0,0-7.8,3.56,14.48,14.48,0,0,0-2.87,9.38q0,5.9,2.87,9.5a9.45,9.45,0,0,0,7.8,3.6m11-32.35h8.25v39.06q0,8.17-5.3,12.7t-14,4.53a33.64,33.64,0,0,1-18.92-5.9l4.37-6.47a46.89,46.89,0,0,0,7.64,3.84,19.7,19.7,0,0,0,6.83,1.17,11.14,11.14,0,0,0,7.68-2.59q2.91-2.59,2.91-8v-4.29q-4.12,5.82-12.37,5.82a16.21,16.21,0,0,1-12.78-5.74q-5-5.74-5-14.88t5-14.8a16.22,16.22,0,0,1,12.78-5.74q8.73,0,12.86,6.47Z"/><path class="cls-1" d="M246.71,109.42q7,0,10.76,3.92a14,14,0,0,1,3.8,10.15v27.82h-8.9V126.24q0-4.45-2.18-6.83A8,8,0,0,0,244,117a8.73,8.73,0,0,0-6.55,2.67,9.36,9.36,0,0,0-2.59,6.79v24.83h-8.9V93.89h8.9v20.87q4-5.34,11.89-5.34"/><path class="cls-1" d="M291.47,143.63l1.13,7a27.15,27.15,0,0,1-8.73,1.54q-5.9,0-8.49-2.71t-2.59-8.21V117.42h-7.36v-6.71h7.36V97.61h8.9v13.1H292v6.71H281.68v22.81a4.36,4.36,0,0,0,1.05,3.32,4.78,4.78,0,0,0,3.32,1,21.1,21.1,0,0,0,5.42-.89"/><path class="cls-1" d="M362.17,93.89h15v57.42h-9.38v-29q0-.16.24-21.27-1.62,5.5-6.87,21.27l-9.62,29h-8.33l-9.79-29q-5.82-17-7-21.11.16,7,.16,21.19v28.87h-9.14V93.89h15.12l8.25,24.26q4.45,13.43,6.63,21.27,2.26-8.17,6.63-21.27Z"/><path class="cls-1" d="M400.54,145.49a13,13,0,0,0,8.29-2.63,9,9,0,0,0,3.36-7.48v-3.72l-7,1.45a35.26,35.26,0,0,0-8.9,2.83,5,5,0,0,0-2.83,4.69,4.08,4.08,0,0,0,1.9,3.56,9.16,9.16,0,0,0,5.22,1.29m3-36.07q8.25,0,12.7,3.84a12.93,12.93,0,0,1,4.45,10.31v27.74h-8V146.7q-4.12,5.9-13.42,5.9a18,18,0,0,1-10.43-2.83q-4.12-2.83-4.12-8.65,0-6.39,4.81-9.5t13.39-4.73l9.3-1.7v-1.46a6.22,6.22,0,0,0-2.26-5.14,9.54,9.54,0,0,0-6.15-1.82,13.47,13.47,0,0,0-6.59,1.54,30.54,30.54,0,0,0-6.43,5.18l-5.58-5.18q7.44-8.89,18.36-8.9"/><path class="cls-1" d="M458.2,122.6a21.27,21.27,0,0,0-5.74-4.49,12.45,12.45,0,0,0-5.34-1.17,9.72,9.72,0,0,0-8.37,4.08,16.59,16.59,0,0,0-3,10,16.23,16.23,0,0,0,3,9.91,9.78,9.78,0,0,0,8.37,4,11.54,11.54,0,0,0,5.7-1.41,25.07,25.07,0,0,0,5.86-5.05l5.82,4.93a25.23,25.23,0,0,1-8.09,7.12,20.73,20.73,0,0,1-9.38,2q-9.14,0-14.72-5.82T426.74,131q0-9.87,5.66-15.73t14.8-5.86a21.78,21.78,0,0,1,9,1.74,23.35,23.35,0,0,1,7.68,6Z"/><path class="cls-1" d="M489.69,109.42q7,0,10.76,3.92a14,14,0,0,1,3.8,10.15v27.82h-8.9V126.24q0-4.45-2.18-6.83a8,8,0,0,0-6.23-2.39,8.74,8.74,0,0,0-6.55,2.67,9.36,9.36,0,0,0-2.59,6.79v24.83h-8.9V93.89h8.9v20.87q4-5.34,11.89-5.34"/><path class="cls-1" d="M521.31,151.31h-8.9v-40.6h8.9Zm0-47.64h-8.9V94.54h8.9Z"/><path class="cls-1" d="M550.3,109.42q7,0,10.76,3.92a14,14,0,0,1,3.8,10.15v27.82H556V126.24q0-4.45-2.18-6.83a8,8,0,0,0-6.23-2.39,8.73,8.73,0,0,0-6.55,2.67,9.36,9.36,0,0,0-2.59,6.79v24.83h-8.9v-40.6h8.25v4.85q4.2-6.14,12.54-6.15"/><path class="cls-1" d="M590.61,116.45a9.78,9.78,0,0,0-7.12,2.67,13.49,13.49,0,0,0-3.64,7.44H600.8a11,11,0,0,0-2.87-7.4,9.73,9.73,0,0,0-7.32-2.71m13.91,22.48,5.09,5.42a28.57,28.57,0,0,1-8.57,6.31,23,23,0,0,1-9.38,1.86q-9.54,0-15.16-5.78t-5.62-15.49q0-9.71,5.42-15.77t14.56-6.07q9,0,13.83,5.34t4.85,14.64q0,2-.16,3.64H579.61a14.21,14.21,0,0,0,3.56,8.65q3.07,3.32,8.65,3.32a13.79,13.79,0,0,0,6.23-1.29,32.08,32.08,0,0,0,6.47-4.77"/><path class="cls-1" d="M373.27,27.91a3.86,3.86,0,1,1-3.86,3.86,3.86,3.86,0,0,1,3.86-3.86"/><path class="cls-1" d="M373.27,14.62a3.86,3.86,0,1,1-3.86,3.86,3.86,3.86,0,0,1,3.86-3.86"/><path class="cls-1" d="M373.27,1.34a3.86,3.86,0,1,1-3.86,3.86,3.86,3.86,0,0,1,3.86-3.86"/><path class="cls-1" d="M386.56,27.91a3.86,3.86,0,1,1-3.86,3.86,3.86,3.86,0,0,1,3.86-3.86"/><path class="cls-1" d="M386.56,14.62a3.86,3.86,0,1,1-3.86,3.86,3.86,3.86,0,0,1,3.86-3.86"/><path class="cls-1" d="M386.56,1.34A3.86,3.86,0,1,1,382.7,5.2a3.86,3.86,0,0,1,3.86-3.86"/><path class="cls-1" d="M399.86,27.91A3.86,3.86,0,1,1,396,31.77a3.86,3.86,0,0,1,3.86-3.86"/><path class="cls-1" d="M399.86,14.62A3.86,3.86,0,1,1,396,18.49a3.86,3.86,0,0,1,3.86-3.86"/><path class="cls-1" d="M399.86,1.34A3.86,3.86,0,1,1,396,5.2a3.86,3.86,0,0,1,3.86-3.86"/><rect class="cls-1" x="317.01" y="1.34" width="11.64" height="11.64"/><rect class="cls-1" x="328.65" y="12.97" width="11.64" height="11.64"/><rect class="cls-1" x="340.28" y="24.61" width="11.64" height="11.64"/><rect class="cls-1" x="340.28" y="1.34" width="11.64" height="11.64"/><rect class="cls-1" x="317.01" y="24.61" width="11.64" height="11.64"/><path class="cls-1" d="M216.6,17.45A13.44,13.44,0,1,1,230,30.9,13.44,13.44,0,0,1,216.6,17.45m-4,0A17.41,17.41,0,1,0,214,10.66a17.35,17.35,0,0,0-1.37,6.79"/></g></g></svg>