<?xml version="1.0" encoding="utf-8"?>
<!-- Generator: Adobe Illustrator 24.0.1, SVG Export Plug-In . SVG Version: 6.00 Build 0)  -->
<svg version="1.1" id="Layer_1" xmlns="http://www.w3.org/2000/svg" xmlns:xlink="http://www.w3.org/1999/xlink" x="0px" y="0px"
	 viewBox="0 0 300 120" style="enable-background:new 0 0 300 120;" xml:space="preserve">
<style type="text/css">
	.st0{fill-rule:evenodd;clip-rule:evenodd;fill:none;}
	.st1{fill:#FFFFFF;}
	.st2{fill-rule:evenodd;clip-rule:evenodd;fill:#FFFFFF;}
</style>
<title>logos-transloadit-default</title>
<desc>Created with Sketch.</desc>
<g id="logos-transloadit-default">
	<g id="Glyph" transform="translate(31.000000, 27.000000)">
		<path id="path3025-path" class="st0" d="M25.6,16c-1.1-2.9-1.8-7.4-1.8-9c0-3,2.5-5.5,5.5-5.5c3.1,0,5.5,2.5,5.5,5.5
			c0,1.6-0.7,6.1-1.7,9c9.5,0.5,22.8,3,23.4,6.2c0.7,3.7,0.9,12.9,0.9,21.9c0,7.8-14,13-27.8,13c-13.8,0-27.8-5.1-27.8-13
			c0-9,0.3-18.3,0.9-21.9C3.5,19,16.2,16.6,25.6,16L25.6,16z"/>
		<path id="path3005" class="st1" d="M21.9,41.3c0,1.1-0.9,1.9-1.9,1.9s-1.9-0.9-1.9-1.9c0-1.1,0.9-1.9,1.9-1.9S21.9,40.3,21.9,41.3
			"/>
		<path id="path3013" class="st1" d="M37,50c0.4,0.7,0.1,1.7-0.6,2.1c-0.1,0.1-2.7,1.4-6.6,1.4c-4,0-6.5-1.4-6.6-1.4
			c-0.7-0.4-1-1.3-0.6-2.1c0.4-0.7,1.3-1,2.1-0.6c0.1,0,2,1.1,5.1,1.1c3.1,0,5.2-1.1,5.2-1.1C35.6,49,36.6,49.2,37,50"/>
		<path id="path3017" class="st1" d="M45.2,41.3c0,1.1-0.9,1.9-1.9,1.9c-1.1,0-1.9-0.9-1.9-1.9c0-1.1,0.9-1.9,1.9-1.9
			C44.4,39.4,45.2,40.3,45.2,41.3"/>
		<path id="path3021" class="st1" d="M41.4,45.2c-3.2,0-5.8-2.6-5.8-5.8c0-3.2,2.6-5.8,5.8-5.8c3.2,0,5.8,2.6,5.8,5.8
			C47.1,42.6,44.6,45.2,41.4,45.2 M41.4,30.8c-4.8,0-8.6,3.9-8.6,8.6c0,4.8,3.9,8.6,8.6,8.6c4.8,0,8.6-3.9,8.6-8.6
			C50,34.6,46.2,30.8,41.4,30.8"/>
		<path id="path3025" class="st1" d="M3.9,43.5c0-8.4,0.2-17,0.9-20.4C5.4,20,19,17.6,27.9,17.3v-6.1c-1.3-0.6-2.3-1.9-2.3-3.5
			c0-2.1,1.7-3.8,3.8-3.8c2.1,0,3.8,1.7,3.8,3.8c0,1.6-0.9,2.9-2.3,3.5v6.1c8.9,0.2,23.1,2.6,23.7,5.8c0.6,3.4,0.9,12,0.9,20.4
			c0,7.3-13,12-25.8,12C16.9,55.6,3.9,50.8,3.9,43.5z M46,15.2c-3.5-0.7-7.5-1.3-11.3-1.5v-0.5c1.4-1.4,2.3-3.4,2.3-5.5
			c0-4.2-3.4-7.7-7.7-7.7c-4.2,0-7.7,3.4-7.7,7.7c0,2.1,0.9,4.1,2.3,5.5v0.5c-3.6,0.3-7.3,0.8-10.6,1.5C5.3,16.8,1.6,19,0.9,22.4
			C0.1,26.8,0,37.5,0,43.6c0,10.3,15.3,15.9,29.7,15.9s29.7-5.6,29.7-15.9c0-6-0.1-16.7-0.9-21.1C57.9,19,54.1,16.8,46,15.2z"/>
		<path id="path3033" class="st1" d="M18.1,45.2c-3.2,0-5.7-2.6-5.7-5.8c0-3.2,2.6-5.8,5.7-5.8c3.2,0,5.8,2.6,5.8,5.8
			C23.8,42.6,21.2,45.2,18.1,45.2 M18.1,30.8c-4.8,0-8.6,3.9-8.6,8.6c0,4.8,3.9,8.6,8.6,8.6c4.8,0,8.6-3.9,8.6-8.6
			C26.7,34.6,22.8,30.8,18.1,30.8"/>
	</g>
	<g id="Letters" transform="translate(100.873418, 48.265823)">
		<polyline id="Shape" class="st1" points="17.8,4.7 10.7,4.7 10.7,22.9 7.1,22.9 7.1,4.7 0,4.7 0,1.3 17.8,1.3 17.8,4.7 		"/>
		<path id="Shape_1_" class="st1" d="M28.1,9.5h-4.7c-0.8,0-1.2,0.5-1.2,1.4v12h-3.6v-12c0-3.3,1.5-4.8,4.7-4.8h4.7V9.5"/>
		<path id="Shape_2_" class="st1" d="M42,14.9l-7.1,1.8c-1.1,0.3-1.2,0.6-1.2,1.4c0,1,0.4,1.4,1.2,1.4h5.9c0.8,0,1.2-0.5,1.2-1.4
			L42,14.9L42,14.9L42,14.9z M45.6,10.9v7.2c0,3.3-1.5,4.8-4.7,4.8h-5.9c-3.2,0-4.7-1.5-4.7-4.8c0-1.4,0.5-2.4,1.5-3
			c1.1-0.6,1.7-0.8,3.2-1.2L42,12v-1.1c0-1-0.4-1.4-1.2-1.4h-5.9c-0.8,0-1.2,0.5-1.2,1.4v1.2h-3.6v-1.2c0-3.3,1.5-4.8,4.7-4.8h5.9
			C44.1,6.1,45.6,7.6,45.6,10.9L45.6,10.9z"/>
		<path id="Shape_3_" class="st1" d="M60.8,10.9c0-1-0.4-1.4-1.2-1.4h-5.9c-0.8,0-1.2,0.5-1.2,1.4v12H49v-12c0-3.3,1.5-4.8,4.7-4.8
			h5.9c3.2,0,4.7,1.5,4.7,4.8v12h-3.6V10.9"/>
		<path id="Shape_4_" class="st1" d="M78.3,22.9h-5.9c-3.2,0-4.7-1.5-4.7-4.8v-1.2h3.6v1.2c0,1,0.4,1.4,1.2,1.4h5.9
			c0.8,0,1.2-0.5,1.2-1.4c0-0.7,0-1-1.2-1.4l-5.9-1.5c-1.5-0.4-2.2-0.6-3.2-1.2c-1-0.6-1.5-1.6-1.5-3.1c0-3.3,1.5-4.8,4.7-4.8h5.9
			c3.2,0,4.7,1.5,4.7,4.8v1.2h-3.5v-1.2c0-1-0.4-1.4-1.2-1.4h-5.9c-0.8,0-1.2,0.5-1.2,1.4c0,0.7,0,1,1.2,1.4l5.9,1.5
			c1.5,0.4,2.2,0.6,3.2,1.2c1.1,0.6,1.5,1.6,1.5,3C83,21.3,81.5,22.9,78.3,22.9"/>
		<path id="Shape_5_" class="st1" d="M90.4,19.5h3v3.3h-3c-3,0-4.1-1.2-4.1-4.2V1.3h3.6v17.3C89.8,19.3,89.9,19.5,90.4,19.5"/>
		<path id="Shape_6_" class="st1" d="M107.4,10.9c0-1-0.4-1.4-1.2-1.4h-5.9c-0.8,0-1.2,0.5-1.2,1.4v7.2c0,1,0.4,1.4,1.2,1.4h5.9
			c0.8,0,1.2-0.5,1.2-1.4L107.4,10.9L107.4,10.9z M111,10.9v7.2c0,3.3-1.5,4.8-4.7,4.8h-5.9c-3.3,0-4.7-1.5-4.7-4.8v-7.2
			c0-3.3,1.5-4.8,4.7-4.8h5.9C109.5,6.1,111,7.6,111,10.9L111,10.9z"/>
		<path id="Shape_7_" class="st1" d="M125.9,14.9l-7.1,1.8c-1.1,0.3-1.2,0.6-1.2,1.4c0,1,0.4,1.4,1.2,1.4h5.9c0.8,0,1.2-0.5,1.2-1.4
			V14.9L125.9,14.9z M129.5,10.9v7.2c0,3.3-1.5,4.8-4.7,4.8h-5.9c-3.2,0-4.7-1.5-4.7-4.8c0-1.4,0.5-2.4,1.5-3
			c1.1-0.6,1.7-0.8,3.2-1.2l7.1-1.8v-1.1c0-1-0.4-1.4-1.2-1.4h-5.9c-0.8,0-1.2,0.5-1.2,1.4v1.2h-3.6v-1.2c0-3.3,1.5-4.8,4.7-4.8h5.9
			C128,6.1,129.5,7.6,129.5,10.9L129.5,10.9z"/>
		<path id="Shape_8_" class="st1" d="M144.6,18.1V9.5h-7.1c-0.8,0-1.2,0.5-1.2,1.4v7.2c0,1,0.4,1.4,1.2,1.4h5.9
			C144.2,19.5,144.6,19,144.6,18.1z M148.1,1.3v16.8c0,3.3-1.5,4.8-4.7,4.8h-5.9c-3.3,0-4.7-1.5-4.7-4.8v-7.2c0-3.3,1.4-4.8,4.7-4.8
			h7.1V1.3L148.1,1.3L148.1,1.3z"/>
		<polygon id="Path" class="st1" points="155.2,6.3 155.2,22.9 151.7,22.9 151.7,6.3 		"/>
		<circle id="Oval" class="st2" cx="153.3" cy="2.3" r="2.3"/>
		<path id="Shape_9_" class="st1" d="M168.3,19.5v3.3h-5.3c-3,0-4.1-1.2-4.1-4.2V1.3h3.6v4.8h5.3v3.3h-5.3v9.2
			c0,0.6,0.1,0.8,0.6,0.8L168.3,19.5"/>
	</g>
</g>
</svg>
